:FULLY-SPECIFIED
:FORCE-ALL-JOINTS-BE-3DOF
:DEGREES
1
root -2.95645 16.8291 -36.2757 3.79203 -0.409345 -2.77144
lfemur -18.1857 -3.85478 -7.37129
ltibia 37.6337 0 0
lfoot -17.8071 6.78532 0
ltoes -26.1578 0 0
rfemur -19.1521 0.15077 14.7318
rtibia 40.3652 0 0
rfoot -23.1652 -2.86285 0
rtoes -21.0274 0 0
lowerback 7.02591 2.55716 -1.97249
upperback -3.14202 3.31583 1.27229
thorax -7.43554 1.75645 1.99661
lowerneck -4.68188 -4.04088 -6.84108
upperneck 4.69893 -5.30737 6.47589
head 2.76948 -2.5844 3.14763
lclavicle 1.91563e-15 -9.24349e-15 0
lhumerus -27.0689 -5.33108 89.6453
lradius 25.7364 0 0
lwrist -30.6252 0 0
lhand -28.8405 29.9909 0
lfingers 7.12502 0 0
lthumb -2.19771 59.9594 0
rclavicle 1.91563e-15 -9.24349e-15 0
rhumerus -32.8355 4.71181 -81.727
rradius 32.9783 0 0
rwrist 3.84135 0 0
rhand -24.1523 -25.0894 0
rfingers 7.12502 0 0
rthumb 2.33029 -55.0564 0
2
root -2.95731 16.8258 -36.2792 3.83081 -0.420815 -2.78505
lfemur -18.1474 -4.07669 -7.3372
ltibia 37.4903 -0 0
lfoot -17.7309 6.94698 -0.00478432
ltoes -26.5897 0 0
rfemur -19.1161 0.277312 14.7542
rtibia 40.2159 -0 0
rfoot -23.118 -2.95858 0.00180155
rtoes -21.3653 0 0
lowerback 6.96831 2.5693 -1.98355
upperback -3.14323 3.33207 1.27381
thorax -7.40491 1.76484 2.0039
lowerneck -4.73075 -4.04533 -6.84497
upperneck 4.69893 -5.31078 6.48702
head 2.77946 -2.58513 3.15144
lclavicle 1.91563e-15 -9.24349e-15 0
lhumerus -27.0797 -5.35096 89.6457
lradius 25.7528 -0 0
lwrist -30.63 0 0
lhand -28.8406 29.9881 3.76593e-07
lfingers 7.12502 -0 0
lthumb -2.19778 59.9566 3.63805e-07
rclavicle 1.91563e-15 -9.24349e-15 0
rhumerus -32.8457 4.74292 -81.7552
rradius 33.0289 -0 0
rwrist 3.87244 0 0
rhand -24.2413 -25.0493 0.00140402
rfingers 7.12502 -0 0
rthumb 2.24438 -55.018 0.00129899
3
root -2.95826 16.8226 -36.2829 3.86097 -0.433102 -2.79691
lfemur -18.1074 -4.27089 -7.3081
ltibia 37.359 -0 0
lfoot -17.6612 7.0926 -0.00943229
ltoes -26.9685 0 0
rfemur -19.0807 0.388092 14.7744
rtibia 40.0821 -0 0
rfoot -23.0735 -3.03723 0.00356046
rtoes -21.6515 0 0
lowerback 6.92476 2.58022 -1.99419
upperback -3.14275 3.3465 1.27541
thorax -7.38049 1.77231 2.01086
lowerneck -4.77534 -4.04877 -6.84843
upperneck 4.6978 -5.31306 6.4976
head 2.78813 -2.58537 3.15508
lclavicle 1.91563e-15 -9.24349e-15 0
lhumerus -27.0886 -5.36924 89.6478
lradius 25.7681 -0 0
lwrist -30.6328 0 0
lhand -28.8409 29.9846 1.39848e-06
lfingers 7.12502 -0 0
lthumb -2.19807 59.9531 1.35269e-06
rclavicle 1.91563e-15 -9.24349e-15 0
rhumerus -32.854 4.76795 -81.7789
rradius 33.0708 -0 0
rwrist 3.90024 0 0
rhand -24.3213 -25.0147 0.00272797
rfingers 7.12502 -0 0
rthumb 2.16713 -54.9849 0.00252244
4
root -2.95931 16.8196 -36.2868 3.88276 -0.446158 -2.80704
lfemur -18.0659 -4.43801 -7.28385
ltibia 37.2399 -0 0
lfoot -17.5979 7.22248 -0.0138937
ltoes -27.2953 0 0
rfemur -19.0459 0.483462 14.7925
rtibia 39.9634 -0 0
rfoot -23.0317 -3.09926 0.00525239
rtoes -21.8873 0 0
lowerback 6.89482 2.58994 -2.00441
upperback -3.14064 3.35914 1.2771
thorax -7.36212 1.7789 2.01749
lowerneck -4.81572 -4.05125 -6.85146
upperneck 4.69557 -5.31423 6.50765
head 2.79553 -2.58513 3.15855
lclavicle 1.91563e-15 -9.24349e-15 0
lhumerus -27.0955 -5.38595 89.6516
lradius 25.7825 -0 0
lwrist -30.6338 0 0
lhand -28.8414 29.9805 3.01585e-06
lfingers 7.12502 -0 0
lthumb -2.19856 59.949 2.91846e-06
rclavicle 1.91563e-15 -9.24349e-15 0
rhumerus -32.8604 4.78707 -81.7983
rradius 33.1041 -0 0
rwrist 3.92482 0 0
rhand -24.3925 -24.9855 0.00395475
rfingers 7.12502 -0 0
rthumb 2.09838 -54.9571 0.00365443
5
root -2.96044 16.8168 -36.2908 3.89642 -0.459933 -2.81549
lfemur -18.0229 -4.57864 -7.2643
ltibia 37.1326 -0 0
lfoot -17.5409 7.33691 -0.0181249
ltoes -27.5713 0 0
rfemur -19.0118 0.563773 14.8086
rtibia 39.8595 -0 0
rfoot -22.9926 -3.14511 0.00685609
rtoes -22.074 0 0
lowerback 6.8781 2.59849 -2.01419
upperback -3.13696 3.37005 1.27887
thorax -7.34961 1.78462 2.02378
lowerneck -4.85196 -4.05278 -6.85408
upperneck 4.6923 -5.31434 6.51715
head 2.80169 -2.58443 3.16185
lclavicle 1.91563e-15 -9.24349e-15 0
lhumerus -27.1006 -5.4011 89.657
lradius 25.7959 -0 0
lwrist -30.633 0 0
lhand -28.8421 29.9757 5.17327e-06
lfingers 7.12502 -0 0
lthumb -2.19925 59.9442 5.00744e-06
rclavicle 1.91563e-15 -9.24349e-15 0
rhumerus -32.8649 4.80044 -81.8135
rradius 33.1292 -0 0
rwrist 3.94624 0 0
rhand -24.455 -24.9616 0.00507026
rfingers 7.12502 -0 0
rthumb 2.03796 -54.9345 0.00468188
6
root -2.96165 16.814 -36.2949 3.90221 -0.47438 -2.82229
lfemur -17.9784 -4.69342 -7.24933
ltibia 37.037 -0 0
lfoot -17.4901 7.43619 -0.0220883
ltoes -27.7977 0 0
rfemur -18.9785 0.629375 14.8226
rtibia 39.7703 -0 0
rfoot -22.9561 -3.17524 0.00835321
rtoes -22.2128 0 0
lowerback 6.87419 2.60589 -2.02353
upperback -3.13177 3.37925 1.28071
thorax -7.34279 1.78949 2.02972
lowerneck -4.88413 -4.05339 -6.85629
upperneck 4.68803 -5.31341 6.52611
head 2.80662 -2.58329 3.16498
lclavicle 1.91563e-15 -9.24349e-15 0
lhumerus -27.1038 -5.41473 89.6639
lradius 25.8084 -0 0
lwrist -30.6305 0 0
lhand -28.843 29.9704 7.81067e-06
lfingers 7.12502 -0 0
lthumb -2.20014 59.9389 7.56146e-06
rclavicle 1.91563e-15 -9.24349e-15 0
rhumerus -32.8676 4.80825 -81.8246
rradius 33.1463 -0 0
rwrist 3.96458 0 0
rhand -24.5092 -24.9429 0.00606327
rfingers 7.12502 -0 0
rthumb 1.9857 -54.9169 0.0055944
